<svg xmlns="http://www.w3.org/2000/svg" width="600" height="400" viewBox="0 0 600 400"><rect width="100%" height="100%" fill="#DDDDDD"/><path fill="#999999" d="m164.46 174.175-2.95 5.59q-.53.92-1.12 1.34-.6.42-1.48.42-.92 0-2-.68-1.08-.69-2.57-1.52-1.5-.84-3.5-1.52t-4.73-.68q-2.46 0-4.31.59-1.85.6-3.1 1.65-1.26 1.06-1.87 2.53-.62 1.48-.62 3.24 0 2.24 1.25 3.74 1.26 1.49 3.33 2.55 2.06 1.05 4.7 1.89 2.64.84 5.42 1.78 2.77.95 5.41 2.2 2.64 1.26 4.71 3.17 2.06 1.91 3.32 4.69 1.25 2.77 1.25 6.73 0 4.31-1.47 8.07-1.48 3.76-4.31 6.56-2.84 2.79-6.93 4.4-4.1 1.6-9.38 1.6-3.03 0-5.98-.59-2.95-.59-5.65-1.69-2.71-1.1-5.09-2.64-2.37-1.54-4.22-3.44l3.48-5.67q.44-.62 1.14-1.04.7-.41 1.5-.41 1.1 0 2.37.9 1.28.9 3.04 2t4.11 2q2.36.9 5.66.9 5.06 0 7.83-2.39 2.77-2.4 2.77-6.89 0-2.51-1.25-4.09-1.26-1.59-3.33-2.66-2.06-1.08-4.7-1.83t-5.37-1.63q-2.73-.88-5.37-2.11t-4.71-3.21q-2.07-1.98-3.32-4.95t-1.25-7.33q0-3.47 1.38-6.77 1.39-3.3 4.03-5.86 2.64-2.55 6.51-4.09 3.87-1.54 8.89-1.54 5.63 0 10.38 1.76 4.75 1.76 8.1 4.93Zm33.57 45.98v-7.61q-4.71.22-7.92.81-3.21.6-5.15 1.52-1.93.92-2.77 2.16-.84 1.23-.84 2.68 0 2.86 1.7 4.09 1.69 1.23 4.42 1.23 3.34 0 5.79-1.21 2.44-1.21 4.77-3.67Zm-22.97-23.72-1.93-3.47q7.78-7.13 18.74-7.13 3.96 0 7.08 1.3 3.13 1.3 5.28 3.61 2.16 2.31 3.28 5.52 1.12 3.21 1.12 7.04v28.51h-4.92q-1.54 0-2.38-.46-.84-.46-1.32-1.87l-.97-3.26q-1.71 1.54-3.34 2.71-1.63 1.16-3.39 1.96-1.76.79-3.76 1.21-2 .41-4.42.41-2.86 0-5.28-.77-2.42-.77-4.18-2.31-1.76-1.54-2.73-3.82-.97-2.29-.97-5.33 0-1.71.57-3.41.57-1.69 1.87-3.23 1.3-1.54 3.37-2.91 2.07-1.36 5.08-2.37 3.01-1.01 7.02-1.65 4-.64 9.15-.77v-2.64q0-4.53-1.94-6.71-1.93-2.18-5.58-2.18-2.64 0-4.38.62-1.74.61-3.06 1.38-1.32.77-2.4 1.39-1.08.61-2.4.61-1.14 0-1.93-.59t-1.28-1.39Zm75.9-9.76h8.58l-17.91 45.14h-9.85l-17.91-45.14h8.98q1.23 0 2.04.57.82.57 1.08 1.45l8.71 24.11q.71 2.11 1.23 4.14.53 2.02.93 4.05.44-2.03.97-4.05.52-2.03 1.27-4.14l8.89-24.11q.31-.88 1.1-1.45t1.89-.57Zm22.93 17.38h20.5q0-2.12-.59-3.99-.6-1.87-1.79-3.27-1.18-1.41-3.01-2.23-1.83-.81-4.25-.81-4.7 0-7.41 2.68-2.71 2.69-3.45 7.62Zm27.72 6.55h-27.94q.26 3.48 1.23 6.01t2.55 4.18q1.58 1.65 3.76 2.46 2.18.82 4.82.82t4.55-.62q1.92-.62 3.35-1.36 1.43-.75 2.51-1.37 1.07-.61 2.09-.61 1.36 0 2.02 1.01l3.12 3.96q-1.8 2.11-4.04 3.54-2.25 1.43-4.69 2.29-2.44.86-4.97 1.21t-4.91.35q-4.71 0-8.75-1.56-4.05-1.56-7.04-4.62-3-3.06-4.71-7.57-1.72-4.51-1.72-10.45 0-4.62 1.5-8.69 1.49-4.07 4.29-7.08 2.79-3.02 6.82-4.78 4.02-1.76 9.08-1.76 4.27 0 7.88 1.37 3.61 1.36 6.2 3.98 2.6 2.62 4.07 6.42 1.48 3.81 1.48 8.69 0 2.47-.53 3.32-.53.86-2.02.86Zm93.85-42.41h8.93v63.62h-10.43v-41.1q0-2.46.27-5.32L375 221.515q-1.37 2.6-4.18 2.6h-1.67q-2.82 0-4.18-2.6l-19.45-36.25q.13 1.45.22 2.86t.09 2.59v41.1H335.4v-63.62h8.93q.79 0 1.36.04.58.04 1.04.22.46.18.83.57.38.4.73 1.06l19.05 35.33q.75 1.41 1.39 2.9.64 1.5 1.25 3.08.62-1.62 1.28-3.14t1.41-2.93l18.78-35.24q.36-.66.75-1.06.4-.39.86-.57.46-.18 1.03-.22.58-.04 1.37-.04Zm29.96 35.86h20.51q0-2.12-.6-3.99-.59-1.87-1.78-3.27-1.19-1.41-3.01-2.23-1.83-.81-4.25-.81-4.71 0-7.41 2.68-2.71 2.69-3.46 7.62Zm27.72 6.55H425.2q.27 3.48 1.23 6.01.97 2.53 2.56 4.18 1.58 1.65 3.76 2.46 2.18.82 4.82.82t4.55-.62q1.91-.62 3.34-1.36 1.43-.75 2.51-1.37 1.08-.61 2.09-.61 1.37 0 2.03 1.01l3.12 3.96q-1.8 2.11-4.05 3.54-2.24 1.43-4.68 2.29-2.45.86-4.98 1.21-2.53.35-4.9.35-4.71 0-8.76-1.56t-7.04-4.62q-2.99-3.06-4.71-7.57-1.71-4.51-1.71-10.45 0-4.62 1.49-8.69 1.5-4.07 4.29-7.08 2.8-3.02 6.82-4.78 4.03-1.76 9.09-1.76 4.27 0 7.88 1.37 3.6 1.36 6.2 3.98t4.07 6.42q1.47 3.81 1.47 8.69 0 2.47-.52 3.32-.53.86-2.03.86Zm12.63-42.41h10.21v25.16q0 4.01-.4 7.86-.39 3.85-1.01 8.16h-7.39q-.62-4.31-1.01-8.16-.4-3.85-.4-7.86v-25.16Zm-1.72 57.64q0-1.37.51-2.6t1.41-2.11q.9-.88 2.13-1.41 1.23-.53 2.64-.53 1.37 0 2.6.53t2.13 1.41q.9.88 1.43 2.11.53 1.23.53 2.6 0 1.4-.53 2.61t-1.43 2.09q-.9.88-2.13 1.39-1.23.51-2.6.51-1.41 0-2.64-.51-1.23-.51-2.13-1.39-.9-.88-1.41-2.09-.51-1.21-.51-2.61Z"/></svg>